<svg xmlns="http://www.w3.org/2000/svg" viewBox="0 0 160 190"><ellipse cx="80" cy="176" rx="46" ry="9" opacity=".15"/><path d="M48 75 L35 135" stroke="#1b55a7" stroke-width="17" stroke-linecap="round"/><path d="M112 75 L125 135" stroke="#1b55a7" stroke-width="17" stroke-linecap="round"/><rect x="48" y="78" width="64" height="72" rx="20" fill="#226bd3" stroke="#4b2b13" stroke-width="5"/><path d="M47 89 Q80 118 113 89" fill="#2f87ff"/><circle cx="80" cy="55" r="39" fill="#ffd3a3" stroke="#4b2b13" stroke-width="5"/><path d="M45 49 Q55 17 84 22 Q111 23 119 50 Q98 35 78 44 Q62 34 45 49Z" fill="#7a3b16" stroke="#4b2b13" stroke-width="5"/><circle cx="66" cy="58" r="6"/><circle cx="94" cy="58" r="6"/><path d="M66 76 Q80 87 94 76" fill="none" stroke="#4b2b13" stroke-width="5" stroke-linecap="round"/><path d="M117 88 L145 44" stroke="#e8eef7" stroke-width="12" stroke-linecap="round"/><path d="M145 44 L152 24" stroke="#4b2b13" stroke-width="5" stroke-linecap="round"/></svg>